<mxfile host="app.diagrams.net" modified="2024-05-25T08:39:55.082Z" agent="Mozilla/5.0 (Windows NT 10.0; Win64; x64) AppleWebKit/537.36 (KHTML, like Gecko) Chrome/124.0.0.0 Safari/537.36" etag="7iOGoWATWehSRKAgXcWo" version="24.4.0" type="github">
  <diagram name="第 1 页" id="h5uSdNXz_CgG29KLq9Y8">
    <mxGraphModel dx="819" dy="426" grid="1" gridSize="10" guides="1" tooltips="1" connect="1" arrows="1" fold="1" page="1" pageScale="1" pageWidth="827" pageHeight="1169" math="0" shadow="0">
      <root>
        <mxCell id="0" />
        <mxCell id="1" parent="0" />
        <mxCell id="ZrZEr-ucLDgyxE3sHomG-5" style="edgeStyle=orthogonalEdgeStyle;rounded=0;orthogonalLoop=1;jettySize=auto;html=1;exitX=0;exitY=1;exitDx=0;exitDy=0;exitPerimeter=0;" edge="1" parent="1" source="ZrZEr-ucLDgyxE3sHomG-1" target="ZrZEr-ucLDgyxE3sHomG-2">
          <mxGeometry relative="1" as="geometry" />
        </mxCell>
        <mxCell id="ZrZEr-ucLDgyxE3sHomG-1" value="用户" style="shape=umlActor;verticalLabelPosition=bottom;verticalAlign=top;html=1;outlineConnect=0;" vertex="1" parent="1">
          <mxGeometry x="370" y="40" width="30" height="60" as="geometry" />
        </mxCell>
        <mxCell id="ZrZEr-ucLDgyxE3sHomG-2" value="" style="image;aspect=fixed;perimeter=ellipsePerimeter;html=1;align=center;shadow=0;dashed=0;spacingTop=3;image=img/lib/active_directory/database_server.svg;" vertex="1" parent="1">
          <mxGeometry x="210" y="170" width="41" height="50" as="geometry" />
        </mxCell>
        <mxCell id="ZrZEr-ucLDgyxE3sHomG-3" value="" style="image;aspect=fixed;perimeter=ellipsePerimeter;html=1;align=center;shadow=0;dashed=0;spacingTop=3;image=img/lib/active_directory/database_server.svg;" vertex="1" parent="1">
          <mxGeometry x="373" y="170" width="41" height="50" as="geometry" />
        </mxCell>
        <mxCell id="ZrZEr-ucLDgyxE3sHomG-4" value="" style="image;aspect=fixed;perimeter=ellipsePerimeter;html=1;align=center;shadow=0;dashed=0;spacingTop=3;image=img/lib/active_directory/database_server.svg;" vertex="1" parent="1">
          <mxGeometry x="550" y="170" width="41" height="50" as="geometry" />
        </mxCell>
        <mxCell id="ZrZEr-ucLDgyxE3sHomG-6" style="edgeStyle=orthogonalEdgeStyle;rounded=0;orthogonalLoop=1;jettySize=auto;html=1;entryX=0.4;entryY=0.033;entryDx=0;entryDy=0;entryPerimeter=0;" edge="1" parent="1" source="ZrZEr-ucLDgyxE3sHomG-1" target="ZrZEr-ucLDgyxE3sHomG-3">
          <mxGeometry relative="1" as="geometry">
            <Array as="points">
              <mxPoint x="385" y="140" />
              <mxPoint x="389" y="140" />
            </Array>
          </mxGeometry>
        </mxCell>
        <mxCell id="ZrZEr-ucLDgyxE3sHomG-7" style="edgeStyle=orthogonalEdgeStyle;rounded=0;orthogonalLoop=1;jettySize=auto;html=1;exitX=1;exitY=1;exitDx=0;exitDy=0;exitPerimeter=0;entryX=0.194;entryY=-0.014;entryDx=0;entryDy=0;entryPerimeter=0;" edge="1" parent="1" source="ZrZEr-ucLDgyxE3sHomG-1" target="ZrZEr-ucLDgyxE3sHomG-4">
          <mxGeometry relative="1" as="geometry" />
        </mxCell>
        <mxCell id="ZrZEr-ucLDgyxE3sHomG-8" value="主程序" style="rounded=0;whiteSpace=wrap;html=1;" vertex="1" parent="1">
          <mxGeometry x="251" y="180" width="69" height="50" as="geometry" />
        </mxCell>
        <mxCell id="ZrZEr-ucLDgyxE3sHomG-9" value="定时任务" style="rounded=0;whiteSpace=wrap;html=1;" vertex="1" parent="1">
          <mxGeometry x="251" y="230" width="69" height="50" as="geometry" />
        </mxCell>
        <mxCell id="ZrZEr-ucLDgyxE3sHomG-11" value="主程序" style="rounded=0;whiteSpace=wrap;html=1;" vertex="1" parent="1">
          <mxGeometry x="414" y="180" width="69" height="50" as="geometry" />
        </mxCell>
        <mxCell id="ZrZEr-ucLDgyxE3sHomG-12" value="定时任务" style="rounded=0;whiteSpace=wrap;html=1;" vertex="1" parent="1">
          <mxGeometry x="414" y="230" width="69" height="50" as="geometry" />
        </mxCell>
        <mxCell id="ZrZEr-ucLDgyxE3sHomG-13" value="主程序" style="rounded=0;whiteSpace=wrap;html=1;" vertex="1" parent="1">
          <mxGeometry x="590" y="180" width="69" height="50" as="geometry" />
        </mxCell>
        <mxCell id="ZrZEr-ucLDgyxE3sHomG-14" value="定时任务" style="rounded=0;whiteSpace=wrap;html=1;" vertex="1" parent="1">
          <mxGeometry x="590" y="230" width="69" height="50" as="geometry" />
        </mxCell>
        <mxCell id="ZrZEr-ucLDgyxE3sHomG-15" value="" style="rounded=0;whiteSpace=wrap;html=1;" vertex="1" parent="1">
          <mxGeometry x="200" y="310" width="460" height="80" as="geometry" />
        </mxCell>
        <mxCell id="ZrZEr-ucLDgyxE3sHomG-24" style="edgeStyle=orthogonalEdgeStyle;rounded=0;orthogonalLoop=1;jettySize=auto;html=1;exitX=0.5;exitY=1;exitDx=0;exitDy=0;exitPerimeter=0;" edge="1" parent="1" source="ZrZEr-ucLDgyxE3sHomG-16" target="ZrZEr-ucLDgyxE3sHomG-19">
          <mxGeometry relative="1" as="geometry" />
        </mxCell>
        <mxCell id="ZrZEr-ucLDgyxE3sHomG-16" value="服务器A" style="shape=cylinder3;whiteSpace=wrap;html=1;boundedLbl=1;backgroundOutline=1;size=15;" vertex="1" parent="1">
          <mxGeometry x="230" y="310" width="60" height="80" as="geometry" />
        </mxCell>
        <mxCell id="ZrZEr-ucLDgyxE3sHomG-23" style="edgeStyle=orthogonalEdgeStyle;rounded=0;orthogonalLoop=1;jettySize=auto;html=1;" edge="1" parent="1" source="ZrZEr-ucLDgyxE3sHomG-17" target="ZrZEr-ucLDgyxE3sHomG-19">
          <mxGeometry relative="1" as="geometry" />
        </mxCell>
        <mxCell id="ZrZEr-ucLDgyxE3sHomG-17" value="服务器B" style="shape=cylinder3;whiteSpace=wrap;html=1;boundedLbl=1;backgroundOutline=1;size=15;" vertex="1" parent="1">
          <mxGeometry x="384" y="310" width="60" height="80" as="geometry" />
        </mxCell>
        <mxCell id="ZrZEr-ucLDgyxE3sHomG-25" style="edgeStyle=orthogonalEdgeStyle;rounded=0;orthogonalLoop=1;jettySize=auto;html=1;" edge="1" parent="1" source="ZrZEr-ucLDgyxE3sHomG-18" target="ZrZEr-ucLDgyxE3sHomG-19">
          <mxGeometry relative="1" as="geometry">
            <Array as="points">
              <mxPoint x="590" y="400" />
              <mxPoint x="418" y="400" />
            </Array>
          </mxGeometry>
        </mxCell>
        <mxCell id="ZrZEr-ucLDgyxE3sHomG-18" value="服务器C" style="shape=cylinder3;whiteSpace=wrap;html=1;boundedLbl=1;backgroundOutline=1;size=15;" vertex="1" parent="1">
          <mxGeometry x="560" y="310" width="60" height="80" as="geometry" />
        </mxCell>
        <mxCell id="ZrZEr-ucLDgyxE3sHomG-28" style="edgeStyle=orthogonalEdgeStyle;rounded=0;orthogonalLoop=1;jettySize=auto;html=1;entryX=0.5;entryY=0;entryDx=0;entryDy=0;" edge="1" parent="1" source="ZrZEr-ucLDgyxE3sHomG-19" target="ZrZEr-ucLDgyxE3sHomG-27">
          <mxGeometry relative="1" as="geometry" />
        </mxCell>
        <mxCell id="ZrZEr-ucLDgyxE3sHomG-19" value="" style="sketch=0;pointerEvents=1;shadow=0;dashed=0;html=1;strokeColor=none;fillColor=#333333;labelPosition=center;verticalLabelPosition=bottom;verticalAlign=top;outlineConnect=0;align=center;shape=mxgraph.office.security.lock_protected;" vertex="1" parent="1">
          <mxGeometry x="395.08" y="460" width="45.41" height="60" as="geometry" />
        </mxCell>
        <mxCell id="ZrZEr-ucLDgyxE3sHomG-26" value="抢锁" style="text;html=1;align=center;verticalAlign=middle;whiteSpace=wrap;rounded=0;" vertex="1" parent="1">
          <mxGeometry x="354" y="430" width="60" height="30" as="geometry" />
        </mxCell>
        <mxCell id="ZrZEr-ucLDgyxE3sHomG-27" value="执行定时任务" style="whiteSpace=wrap;html=1;aspect=fixed;" vertex="1" parent="1">
          <mxGeometry x="378" y="570" width="82" height="82" as="geometry" />
        </mxCell>
        <mxCell id="ZrZEr-ucLDgyxE3sHomG-29" value="" style="image;aspect=fixed;perimeter=ellipsePerimeter;html=1;align=center;shadow=0;dashed=0;spacingTop=3;image=img/lib/active_directory/generic_server.svg;" vertex="1" parent="1">
          <mxGeometry x="580" y="430" width="40" height="71.43" as="geometry" />
        </mxCell>
        <mxCell id="ZrZEr-ucLDgyxE3sHomG-30" value="int count=1&lt;div&gt;count=count-1&lt;/div&gt;&lt;div&gt;执行10次后，未必是count-10&lt;/div&gt;" style="whiteSpace=wrap;html=1;aspect=fixed;" vertex="1" parent="1">
          <mxGeometry x="560" y="505" width="100" height="100" as="geometry" />
        </mxCell>
      </root>
    </mxGraphModel>
  </diagram>
</mxfile>
